<svg xmlns="http://www.w3.org/2000/svg" xmlns:xlink="http://www.w3.org/1999/xlink" viewBox="0 0 192 132.86"><defs><style>.cls-1{fill:#fff;}.cls-2{fill:url(#未命名的渐变_25);}</style><linearGradient id="未命名的渐变_25" x1="-4.35" y1="85.64" x2="139.06" y2="47.21" gradientUnits="userSpaceOnUse"><stop offset="0.33" stop-color="#fff"/><stop offset="0.88" stop-color="#00b8e9"/></linearGradient></defs><title>资源 1</title><g id="图层_2" data-name="图层 2"><g id="图层_1-2" data-name="图层 1"><path d="M77.74,107.76h6l1.45,9.93c.18,1.33.23,2.78.34,4.2h.16c.78-1.42,1.47-2.87,2.19-4.2l5.72-9.93h6l-5.08,23h-5l1.74-7.89c.51-2.29,1.7-5.72,2.47-8h-.12l-3.13,5.51-5,8.41h-3l-1.27-8.41-.64-5.51H80.4a79,79,0,0,1-1.05,8l-1.74,7.89h-5Z"/><path d="M104.86,107.76h5.53l-5.07,23H99.78Z"/><path d="M123,130.77l-2.45-8.11h-2.66l-1.79,8.11h-5.53l5.07-23h8.44c4.92,0,8.63,1.67,7.4,7.24a9,9,0,0,1-5.42,6.64l3.12,9.13Zm-4.15-12.47h2.47c2.63,0,4.28-1.14,4.75-3.3s-.75-2.88-3.38-2.88h-2.48Z"/><path d="M137.57,107.76h5.54l-5.08,23H132.5Z"/><path d="M154.55,117.16l1.71-7.77q1.73-1.73,2.67.1l-1.7,7.67h8.92c.69.07,1,.51.86,1.34s-.74,1.35-1.45,1.35h-7.48a34.38,34.38,0,0,0,6.16,8.15c.58.58.43,1.25-.44,2a1.73,1.73,0,0,1-2.15.2,19.88,19.88,0,0,1-5.66-7.39l-1.74,7.87q-1.78,2-2.69,0l1.76-8a48.83,48.83,0,0,1-8.53,7.39c-1.1.64-2,.64-2.59,0-.36-.7,0-1.41,1.13-2.11a41.46,41.46,0,0,0,9.09-8.15h-7.19c-.77,0-1.09-.45-.95-1.35a1.67,1.67,0,0,1,1.54-1.34ZM150.1,116q-1-2.2-2.23-4.22c-.39-.58-.2-1.15.57-1.73s1.46-.51,1.92,0c.6,1,1.32,2.43,2.14,4.22.1.13.18.19.24.19a1.64,1.64,0,0,1-.73,2C151.08,116.94,150.44,116.78,150.1,116Zm10.37-1.34c.18-.26.41-.55.67-.87.94-1.08,1.82-2.14,2.62-3.16a1.4,1.4,0,0,1,1.9-.39A1.17,1.17,0,0,1,166,112a27,27,0,0,1-3.52,4.22,1.66,1.66,0,0,1-2.19.39C159.71,116.07,159.79,115.43,160.47,114.67Z"/><path d="M171.18,112.65c-1.15-.89-1-1.79.59-2.68H177c.69.06,1,.51.85,1.34s-.64,1.34-1.35,1.34h-1.24l-1,4.7h1.25a1.5,1.5,0,0,1,1.32-.76h14c.69.06,1,.51.86,1.34s-.75,1.34-1.45,1.34H184.3l-.87,1.34h4.79q2.16-.18,1.5,1.92l-1.44,6.53c-.37,1.66-1.27,2.39-2.69,2.2a5.06,5.06,0,0,1-1.87-.67,1.6,1.6,0,0,1-.83.29c-1.09,0-1.52-.39-1.28-1.15L183,123.3h-1.35L180.2,130a1.76,1.76,0,0,1-1.59,1.16c-.82-.07-1.16-.42-1-1.06l1.5-6.81h-1c-.39.06-.59.22-.58.48l-1.46,6.62a1.77,1.77,0,0,1-1.6,1.15c-.88-.07-1.25-.42-1.11-1.06l.72-3.26a55.11,55.11,0,0,1-5.52,2.4c-1.18.45-1.86.32-2-.38s0-1.22.86-1.73a8.94,8.94,0,0,0,1.06-.48,3.26,3.26,0,0,0,1.07-.48l1.46-6.62h-1.34c-.71,0-1-.41-1-1.24a1.65,1.65,0,0,1,1.45-1.35h1.44l1-4.7Zm3.94,10a2,2,0,0,1,2.36-2h3l.9-1.43h-5.09c-.33.06-.52,0-.55-.1a1,1,0,0,1-1.15.86h-1l-1.21,5.47a3.12,3.12,0,0,1,1.16-.48,1,1,0,0,1,1,.29Zm8.22-9.88.68-3.07c.12-.58.6-.86,1.43-.86s1.22.28,1.16.86l-.68,3.07h2.68c.25.06.4-.06.47-.39l.43-1.91q1.62-1.74,2.49,0l-.68,3.07a1.87,1.87,0,0,1-2.22,1.82h-9.88c-1.31.13-1.78-.48-1.42-1.82l.65-3c.14-.64.64-1,1.5-1.15.82.07,1.19.42,1.11,1.06l-.42,1.91c-.07.33,0,.45.2.39Zm2,16c.24.06.4-.07.47-.39l1-4.6c.07-.32,0-.48-.37-.48h-.86l-1.15,5.18A3,3,0,0,0,185.37,128.77Z"/><path class="cls-1" d="M83,32.17C85.09,20.29,83.51,9.24,79.08,0A69.42,69.42,0,0,0,63.82,32.17C61.72,44,63.3,55.1,67.73,64.33A69.5,69.5,0,0,0,83,32.17Zm-14,0A61.4,61.4,0,0,1,77.14,11a50.08,50.08,0,0,1,.63,21.21,61.35,61.35,0,0,1-8.1,21.2A50,50,0,0,1,69,32.17Z"/><path class="cls-1" d="M76,64.36a66.62,66.62,0,0,0,31.76-8.45,75.58,75.58,0,0,0,27-24.83c-.74,0-1.48,0-2.22,0a66.62,66.62,0,0,0-31.76,8.45,75.58,75.58,0,0,0-27,24.83C74.53,64.35,75.26,64.36,76,64.36ZM102.67,44a62.68,62.68,0,0,1,21.68-7.21,69.19,69.19,0,0,1-18.49,14.69,62.74,62.74,0,0,1-21.68,7.21A69.19,69.19,0,0,1,102.67,44Z"/><path class="cls-1" d="M30.75,55.8a50.93,50.93,0,0,0,28.78,8.45c.74,0,1.48,0,2.23,0A45.49,45.49,0,0,0,43.55,39.38a51.06,51.06,0,0,0-28.79-8.45c-.74,0-1.48,0-2.23,0A45.46,45.46,0,0,0,30.75,55.8Zm9.31-11.95A41.2,41.2,0,0,1,53.37,58.54a45.23,45.23,0,0,1-19.14-7.21A41.2,41.2,0,0,1,20.92,36.64,45.23,45.23,0,0,1,40.06,43.85Z"/><path class="cls-1" d="M51.7,100.69c-2.09,11.88-.51,22.93,3.92,32.17a69.42,69.42,0,0,0,15.26-32.17C73,88.81,71.4,77.76,67,68.53A69.45,69.45,0,0,0,51.7,100.69Zm5.86,21.21a50.08,50.08,0,0,1-.63-21.21A61.35,61.35,0,0,1,65,79.49a50,50,0,0,1,.63,21.2A61.4,61.4,0,0,1,57.56,121.9Z"/><path class="cls-1" d="M104,77A50.93,50.93,0,0,0,75.25,68.5c-.74,0-1.49,0-2.23,0A45.48,45.48,0,0,0,91.23,93.37,51.05,51.05,0,0,0,120,101.82c.75,0,1.49,0,2.23,0A45.39,45.39,0,0,0,104,77Zm-9.31,12A41.11,41.11,0,0,1,81.41,74.21a45.23,45.23,0,0,1,19.14,7.21,41.12,41.12,0,0,1,13.31,14.69A45.23,45.23,0,0,1,94.72,88.9Z"/><path class="cls-1" d="M58.73,68.61A66.58,66.58,0,0,0,27,77.05,75.76,75.76,0,0,0,0,101.88c.73,0,1.47.05,2.21.05A66.63,66.63,0,0,0,34,93.48,75.67,75.67,0,0,0,61,68.65C60.21,68.62,59.47,68.61,58.73,68.61ZM32.07,89a63,63,0,0,1-21.68,7.21A69,69,0,0,1,28.88,81.53a62.74,62.74,0,0,1,21.68-7.21A69.19,69.19,0,0,1,32.07,89Z"/><path class="cls-2" d="M83,32.17C85.09,20.29,83.51,9.24,79.08,0A69.42,69.42,0,0,0,63.82,32.17C61.72,44,63.3,55.1,67.73,64.33A69.5,69.5,0,0,0,83,32.17Zm-14,0A61.4,61.4,0,0,1,77.14,11a50.08,50.08,0,0,1,.63,21.21,61.35,61.35,0,0,1-8.1,21.2A50,50,0,0,1,69,32.17Z"/><path class="cls-2" d="M76,64.36a66.62,66.62,0,0,0,31.76-8.45,75.58,75.58,0,0,0,27-24.83c-.74,0-1.48,0-2.22,0a66.62,66.62,0,0,0-31.76,8.45,75.58,75.58,0,0,0-27,24.83C74.53,64.35,75.26,64.36,76,64.36ZM102.67,44a62.68,62.68,0,0,1,21.68-7.21,69.19,69.19,0,0,1-18.49,14.69,62.74,62.74,0,0,1-21.68,7.21A69.19,69.19,0,0,1,102.67,44Z"/><path class="cls-2" d="M30.75,55.8a50.93,50.93,0,0,0,28.78,8.45c.74,0,1.48,0,2.23,0A45.49,45.49,0,0,0,43.55,39.38a51.06,51.06,0,0,0-28.79-8.45c-.74,0-1.48,0-2.23,0A45.46,45.46,0,0,0,30.75,55.8Zm9.31-11.95A41.2,41.2,0,0,1,53.37,58.54a45.23,45.23,0,0,1-19.14-7.21A41.2,41.2,0,0,1,20.92,36.64,45.23,45.23,0,0,1,40.06,43.85Z"/><path class="cls-2" d="M51.7,100.69c-2.09,11.88-.51,22.93,3.92,32.17a69.42,69.42,0,0,0,15.26-32.17C73,88.81,71.4,77.76,67,68.53A69.45,69.45,0,0,0,51.7,100.69Zm5.86,21.21a50.08,50.08,0,0,1-.63-21.21A61.35,61.35,0,0,1,65,79.49a50,50,0,0,1,.63,21.2A61.4,61.4,0,0,1,57.56,121.9Z"/><path class="cls-2" d="M104,77A50.93,50.93,0,0,0,75.25,68.5c-.74,0-1.49,0-2.23,0A45.48,45.48,0,0,0,91.23,93.37,51.05,51.05,0,0,0,120,101.82c.75,0,1.49,0,2.23,0A45.39,45.39,0,0,0,104,77Zm-9.31,12A41.11,41.11,0,0,1,81.41,74.21a45.23,45.23,0,0,1,19.14,7.21,41.12,41.12,0,0,1,13.31,14.69A45.23,45.23,0,0,1,94.72,88.9Z"/><path class="cls-2" d="M58.73,68.61A66.58,66.58,0,0,0,27,77.05,75.76,75.76,0,0,0,0,101.88c.73,0,1.47.05,2.21.05A66.63,66.63,0,0,0,34,93.48,75.67,75.67,0,0,0,61,68.65C60.21,68.62,59.47,68.61,58.73,68.61ZM32.07,89a63,63,0,0,1-21.68,7.21A69,69,0,0,1,28.88,81.53a62.74,62.74,0,0,1,21.68-7.21A69.19,69.19,0,0,1,32.07,89Z"/></g></g></svg>