<?xml version="1.0" encoding="utf-8"?>
<svg width="195px" height="135px" viewBox="0 0 195 135" version="1.1" xmlns:xlink="http://www.w3.org/1999/xlink" xmlns="http://www.w3.org/2000/svg">
  <defs>
    <linearGradient x1="-3.2006555" y1="1.3312607" x2="3.6246166" y2="0.7338722" id="gradient_1">
      <stop offset="0.32999998" stop-color="#FFFFFF" />
      <stop offset="0.88" stop-color="#00B8E9" />
    </linearGradient>
    <linearGradient x1="-1.2812403" y1="1.6394228" x2="1.0705153" y2="0.4846753" id="gradient_2">
      <stop offset="0.32999998" stop-color="#FFFFFF" />
      <stop offset="0.88" stop-color="#00B8E9" />
    </linearGradient>
    <linearGradient x1="-0.34288034" y1="1.6416543" x2="2.570181" y2="0.4885925" id="gradient_3">
      <stop offset="0.32999998" stop-color="#FFFFFF" />
      <stop offset="0.88" stop-color="#00B8E9" />
    </linearGradient>
    <linearGradient x1="-2.6229455" y1="0.26597238" x2="4.199218" y2="-0.33141613" id="gradient_4">
      <stop offset="0.32999998" stop-color="#FFFFFF" />
      <stop offset="0.88" stop-color="#00B8E9" />
    </linearGradient>
    <linearGradient x1="-1.5722413" y1="0.5143926" x2="1.3420037" y2="-0.63872087" id="gradient_5">
      <stop offset="0.32999998" stop-color="#FFFFFF" />
      <stop offset="0.88" stop-color="#00B8E9" />
    </linearGradient>
    <linearGradient x1="-0.07131152" y1="0.51110435" x2="2.2796717" y2="-0.642257" id="gradient_6">
      <stop offset="0.32999998" stop-color="#FFFFFF" />
      <stop offset="0.88" stop-color="#00B8E9" />
    </linearGradient>
    <path d="M0 0L192 0L192 132.86L0 132.86L0 0Z" id="path_1" />
    <rect width="195" height="135" id="artboard_1" />
    <clipPath id="clip_1">
      <use xlink:href="#artboard_1" clip-rule="evenodd" />
    </clipPath>
    <clipPath id="mask_1">
      <use xlink:href="#path_1" />
    </clipPath>
  </defs>
  <g id="Full-HD" clip-path="url(#clip_1)">
    <use xlink:href="#artboard_1" stroke="none" fill="#FFFFFF" />
    <g id="Miracle-Network-Technology_1" transform="translate(1 0)">
      <path d="M0 0L192 0L192 132.86L0 132.86L0 0Z" id="Background" fill="none" fill-rule="evenodd" stroke="none" />
      <g clip-path="url(#mask_1)">
        <g id="图层_2">
          <g id="图层_1-2">
            <path d="M5.13 0L11.13 0L12.58 9.93C12.76 11.26 12.81 12.71 12.92 14.13L13.08 14.13C13.86 12.71 14.55 11.26 15.27 9.93L20.99 0L26.99 0L21.91 23L16.91 23L18.65 15.11C19.16 12.82 20.35 9.39001 21.12 7.11001L21 7.11001L17.87 12.62L12.87 21.03L9.87 21.03L8.6 12.62L7.96 7.11L7.79 7.11C7.57649 9.79282 7.22603 12.463 6.73999 15.11L5 23L0 23L5.13 0Z" transform="translate(72.61 107.76)" id="Shape" fill="#000000" fill-rule="evenodd" stroke="none" />
            <path d="M5.08 0L10.61 0L5.54 23L0 23L5.08 0Z" transform="translate(99.78 107.76)" id="Shape" fill="#000000" fill-rule="evenodd" stroke="none" />
            <path d="M12.43 23L9.98 14.89L7.32 14.89L5.53 23L0 23L5.07 0L13.51 0C18.43 0 22.14 1.67 20.91 7.24C20.3409 10.2268 18.3023 12.7243 15.49 13.88L18.61 23.01L12.43 23ZM8.28 10.53L10.75 10.53C13.38 10.53 15.03 9.39 15.5 7.23C15.97 5.06999 14.75 4.35 12.12 4.35L9.64 4.35L8.28 10.53Z" transform="translate(110.56999 107.770004)" id="Shape" fill="#000000" fill-rule="evenodd" stroke="none" />
            <path d="M5.07001 0L10.61 0L5.53 23L0 23L5.07001 0Z" transform="translate(132.5 107.76)" id="Shape" fill="#000000" fill-rule="evenodd" stroke="none" />
            <path d="M12.4842 8.6107L14.1942 0.840706C15.3476 -0.31263 16.2376 -0.279297 16.8642 0.940704L15.1642 8.6107L24.0842 8.6107C24.7742 8.6807 25.0842 9.1207 24.9442 9.9507C24.8042 10.7807 24.2042 11.3007 23.4942 11.3007L16.0142 11.3007C17.6502 14.309 19.7265 17.056 22.1742 19.4507C22.7542 20.0307 22.6042 20.7007 21.7342 21.4507C21.1523 22.0113 20.2597 22.0944 19.5842 21.6507C17.1393 19.67 15.1995 17.1372 13.9242 14.2607L12.1842 22.1307C10.9976 23.464 10.1009 23.464 9.49423 22.1307L11.2542 14.1307C8.70609 16.9154 5.84364 19.3953 2.72424 21.5207C1.62422 22.1607 0.724228 22.1607 0.134232 21.5207C-0.225769 20.8207 0.134232 20.1107 1.26424 19.4107C4.67981 17.1575 7.74303 14.411 10.3542 11.2607L3.16423 11.2607C2.39423 11.2607 2.07423 10.8107 2.21423 9.91069C2.36305 9.16576 2.99588 8.61511 3.75423 8.57069L12.4842 8.6107ZM8.03423 7.4507C7.36755 5.98403 6.62422 4.57737 5.80423 3.2307C5.41423 2.6507 5.60423 2.0807 6.37424 1.50069C7.14424 0.920692 7.83424 0.990692 8.29424 1.50069C8.89424 2.50069 9.61424 3.93069 10.4342 5.7207C10.5342 5.85069 10.6142 5.9107 10.6742 5.9107C10.9555 6.66617 10.6461 7.51405 9.94426 7.9107C9.01422 8.3907 8.37422 8.2307 8.03423 7.4507L8.03423 7.4507ZM18.4042 6.1107C18.5842 5.8507 18.8142 5.5607 19.0742 5.2407C20.0142 4.1607 20.8942 3.1007 21.6942 2.0807C22.1203 1.46198 22.9588 1.28986 23.5942 1.6907C23.8965 1.85871 24.109 2.15186 24.1746 2.49142C24.2402 2.83099 24.1522 3.18217 23.9342 3.4507C22.9074 4.97343 21.728 6.38743 20.4142 7.67072C19.8921 8.34291 18.9462 8.51134 18.2242 8.06069C17.6442 7.5207 17.7242 6.8807 18.4042 6.1207L18.4042 6.1107Z" transform="translate(142.06578 108.5493)" id="Shape" fill="#000000" fill-rule="evenodd" stroke="none" />
            <path d="M4.66711 3.81C3.51712 2.92 3.66711 2.02 5.25711 1.13L10.4871 1.13C11.1771 1.18999 11.4871 1.64 11.3371 2.46999C11.1871 3.29999 10.6971 3.80999 9.98712 3.80999L8.74712 3.80999L7.74712 8.50999L8.99712 8.50999C9.2662 8.03548 9.77167 7.74445 10.3171 7.74998L24.3171 7.74998C25.0071 7.80998 25.3171 8.25999 25.1771 9.08998C25.0371 9.91998 24.4271 10.43 23.7271 10.43L17.7871 10.43L16.9171 11.77L21.7071 11.77C23.1471 11.65 23.6471 12.29 23.2071 13.69L21.7671 20.22C21.3971 21.88 20.4971 22.61 19.0771 22.42C18.4156 22.3224 17.7801 22.0947 17.2071 21.75C16.963 21.9223 16.6754 22.0227 16.3771 22.04C15.2871 22.04 14.8571 21.65 15.0971 20.89L16.4871 14.46L15.1371 14.46L13.6871 21.16C13.4431 21.8346 12.814 22.2935 12.0971 22.32C11.2771 22.25 10.9371 21.9 11.0971 21.26L12.5971 14.45L11.5971 14.45C11.2071 14.51 11.0071 14.67 11.0171 14.93L9.55711 21.55C9.30617 22.2222 8.67422 22.6764 7.95711 22.7C7.0771 22.63 6.70711 22.28 6.84711 21.64L7.56711 18.38C5.77219 19.28 3.92944 20.0812 2.04709 20.78C0.867111 21.23 0.187103 21.1 0.0471039 20.4C-0.0928955 19.7 0.0471039 19.18 0.907104 18.67C1.27049 18.5332 1.62457 18.3728 1.96712 18.19C2.34985 18.096 2.71239 17.9334 3.03709 17.71L4.49712 11.09L3.15712 11.09C2.44711 11.09 2.15712 10.68 2.15712 9.84999C2.28644 9.12761 2.87733 8.57747 3.6071 8.5L5.04712 8.49999L6.04712 3.8L4.66711 3.81ZM8.60712 13.81C8.59731 13.2109 8.85666 12.6389 9.3138 12.2515C9.77094 11.8641 10.3777 11.7021 10.9671 11.81L13.9671 11.81L14.8671 10.38L9.77711 10.38C9.44711 10.44 9.25711 10.38 9.22711 10.28C9.19263 10.5484 9.05086 10.7914 8.83415 10.9534C8.61745 11.1155 8.34431 11.1828 8.07712 11.14L7.07712 11.14L5.86711 16.61C6.21725 16.3731 6.61192 16.2098 7.02711 16.13C7.38846 16.0318 7.77437 16.1437 8.02711 16.42L8.60712 13.81ZM16.8271 3.93L17.5071 0.860001C17.6271 0.279999 18.1071 0 18.9371 0C19.7671 0 20.1571 0.279999 20.0971 0.860001L19.4171 3.93L22.0971 3.93C22.3471 3.99 22.4971 3.87 22.5671 3.54L22.9971 1.63C24.0771 0.470001 24.9071 0.470001 25.4871 1.63L24.8071 4.7C24.8021 5.25427 24.5514 5.77776 24.1228 6.12919C23.6941 6.48061 23.1316 6.62376 22.5871 6.51999L12.7071 6.52C11.3971 6.64999 10.9271 6.03999 11.2871 4.7L11.9371 1.7C12.0771 1.06 12.5771 0.699997 13.4371 0.549995C14.2571 0.619995 14.6271 0.969994 14.5471 1.60999L14.1271 3.52C14.0571 3.85 14.1271 3.96999 14.3271 3.91L16.8271 3.93ZM18.8271 19.93C19.0671 19.99 19.2271 19.86 19.2971 19.54L20.2971 14.94C20.3671 14.62 20.2971 14.46 19.9271 14.46L19.0671 14.46L17.9171 19.64C18.2124 19.7877 18.53 19.8857 18.8571 19.93L18.8271 19.93Z" transform="translate(166.51288 108.840004)" id="Shape" fill="#000000" fill-rule="evenodd" stroke="none" />
            <path d="M20.0991 32.17C22.1891 20.29 20.6091 9.24 16.1791 0C8.38211 9.21429 3.12243 20.3023 0.919048 32.17C-1.18094 44 0.399055 55.1 4.82906 64.33C12.6249 55.1176 17.8876 44.034 20.099 32.17L20.0991 32.17ZM6.09905 32.17C7.47417 24.6691 10.2346 17.4899 14.2391 11C15.9616 17.9438 16.1765 25.1762 14.869 32.21C13.511 39.7189 10.764 46.9086 6.76906 53.41C5.02639 46.4598 4.79789 39.2162 6.09905 32.17L6.09905 32.17Z" transform="translate(62.90094 0)" id="Shape" fill="#FFFFFF" fill-rule="evenodd" stroke="none" />
            <path d="M2.21999 33.28C13.3462 33.1598 24.2651 30.2547 33.98 24.83C44.8824 18.896 54.1555 10.3682 60.98 1.33514e-05C60.24 0 59.5 0 58.76 0C47.6338 0.120195 36.7149 3.02526 27 8.45C16.0976 14.384 6.8245 22.9118 0 33.28C0.749992 33.27 1.48 33.28 2.21999 33.28L2.21999 33.28ZM28.89 12.92C35.6139 9.20874 42.9626 6.76482 50.57 5.71C45.294 11.6301 39.0396 16.5991 32.08 20.4C25.3555 24.11 18.007 26.5538 10.4 27.61C15.676 21.6899 21.9304 16.7209 28.89 12.92L28.89 12.92Z" transform="translate(73.78 31.080002)" id="Shape" fill="#FFFFFF" fill-rule="evenodd" stroke="none" />
            <path d="M18.22 24.8741C26.7476 30.5159 36.7759 33.4603 47 33.3241C47.74 33.3241 48.48 33.3241 49.23 33.3241C46.2392 23.1676 39.7993 14.3723 31.02 8.45414C22.4862 2.81776 12.4564 -0.126038 2.23001 0.00413895C1.49 0.00413513 0.75 0.00413513 0 0.00413513C2.99107 10.1633 9.43521 18.9595 18.22 24.8741L18.22 24.8741ZM27.53 12.9241C33.0961 16.6646 37.665 21.7072 40.84 27.6141C33.9932 26.7038 27.4458 24.2374 21.7 20.4041C16.1339 16.6637 11.565 11.6211 8.39 5.71413C15.2368 6.6245 21.7842 9.09089 27.53 12.9241L27.53 12.9241Z" transform="translate(12.529995 30.925865)" id="Shape" fill="#FFFFFF" fill-rule="evenodd" stroke="none" />
            <path d="M0.912559 32.16C-1.17744 44.04 0.402561 55.09 4.83256 64.33C12.6295 55.1157 17.8892 44.0276 20.0926 32.16C22.2126 20.28 20.6126 9.23 16.2126 0C8.40391 9.2079 3.13052 20.2924 0.912548 32.16L0.912559 32.16ZM6.77256 53.37C5.04996 46.4262 4.83514 39.1938 6.14256 32.16C7.49137 24.6532 10.2281 17.4636 14.2125 10.96C15.9362 17.9003 16.151 25.1296 14.8425 32.16C13.4938 39.67 10.7571 46.8628 6.77258 53.37L6.77256 53.37Z" transform="translate(50.787437 68.53)" id="Shape" fill="#FFFFFF" fill-rule="evenodd" stroke="none" />
            <path d="M30.98 8.50324C22.4665 2.84956 12.4491 -0.112114 2.23 0.00324249C1.49001 0.00324249 0.740005 0.00324249 0 0.00324249C2.99004 10.1602 9.43014 18.9557 18.21 24.8732C26.7379 30.5063 36.7603 33.45 46.98 33.3232C47.73 33.3232 48.47 33.3232 49.21 33.3232C46.2114 23.1783 39.7633 14.3994 30.98 8.50325L30.98 8.50324ZM21.67 20.5032C16.1002 16.7337 11.5402 11.6553 8.39001 5.71323C15.2368 6.6236 21.7842 9.08999 27.53 12.9232C33.0982 16.6612 37.6677 21.7044 40.84 27.6132C33.9932 26.7029 27.4458 24.2365 21.7 20.4032L21.67 20.5032Z" transform="translate(73.01999 68.49676)" id="Shape" fill="#FFFFFF" fill-rule="evenodd" stroke="none" />
            <path d="M58.73 0C47.6146 0.120445 36.7063 3.022 27 8.44C16.1019 14.38 6.83018 22.9066 0 33.27C0.729996 33.27 1.47 33.32 2.21 33.32C13.3463 33.2044 24.276 30.2992 34 24.87C44.9002 18.933 54.1727 10.4058 61 0.039978C60.21 0.0100021 59.47 0 58.73 0L58.73 0ZM32.07 20.39C25.3432 24.0946 17.9957 26.5381 10.39 27.6C15.6642 21.6808 21.9191 16.7148 28.88 12.92C35.6044 9.21001 42.9529 6.76616 50.56 5.71001C45.2832 11.6265 39.0288 16.5921 32.07 20.39L32.07 20.39Z" transform="translate(0 68.61)" id="Shape" fill="#FFFFFF" fill-rule="evenodd" stroke="none" />
            <path d="M20.0991 32.17C22.1891 20.29 20.6091 9.24 16.1791 0C8.38211 9.21429 3.12243 20.3023 0.919048 32.17C-1.18094 44 0.399055 55.1 4.82906 64.33C12.6249 55.1176 17.8876 44.034 20.099 32.17L20.0991 32.17ZM6.09905 32.17C7.47417 24.6691 10.2346 17.4899 14.2391 11C15.9616 17.9438 16.1765 25.1762 14.869 32.21C13.511 39.7189 10.764 46.9086 6.76906 53.41C5.02639 46.4598 4.79789 39.2162 6.09905 32.17L6.09905 32.17Z" transform="translate(62.90094 0)" id="Shape" fill="url(#gradient_1)" fill-rule="evenodd" stroke="none" />
            <path d="M2.21999 33.28C13.3462 33.1598 24.2651 30.2547 33.98 24.83C44.8824 18.896 54.1555 10.3682 60.98 1.33514e-05C60.24 0 59.5 0 58.76 0C47.6338 0.120195 36.7149 3.02526 27 8.45C16.0976 14.384 6.8245 22.9118 0 33.28C0.749992 33.27 1.48 33.28 2.21999 33.28L2.21999 33.28ZM28.89 12.92C35.6139 9.20874 42.9626 6.76482 50.57 5.71C45.294 11.6301 39.0396 16.5991 32.08 20.4C25.3555 24.11 18.007 26.5538 10.4 27.61C15.676 21.6899 21.9304 16.7209 28.89 12.92L28.89 12.92Z" transform="translate(73.78 31.080002)" id="Shape" fill="url(#gradient_2)" fill-rule="evenodd" stroke="none" />
            <path d="M18.22 24.8741C26.7476 30.5159 36.7759 33.4603 47 33.3241C47.74 33.3241 48.48 33.3241 49.23 33.3241C46.2392 23.1676 39.7993 14.3723 31.02 8.45414C22.4862 2.81776 12.4564 -0.126038 2.23001 0.00413895C1.49 0.00413513 0.75 0.00413513 0 0.00413513C2.99107 10.1633 9.43521 18.9595 18.22 24.8741L18.22 24.8741ZM27.53 12.9241C33.0961 16.6646 37.665 21.7072 40.84 27.6141C33.9932 26.7038 27.4458 24.2374 21.7 20.4041C16.1339 16.6637 11.565 11.6211 8.39 5.71413C15.2368 6.6245 21.7842 9.09089 27.53 12.9241L27.53 12.9241Z" transform="translate(12.529995 30.925865)" id="Shape" fill="url(#gradient_3)" fill-rule="evenodd" stroke="none" />
            <path d="M0.912559 32.16C-1.17744 44.04 0.402561 55.09 4.83256 64.33C12.6295 55.1157 17.8892 44.0276 20.0926 32.16C22.2126 20.28 20.6126 9.23 16.2126 0C8.40391 9.2079 3.13052 20.2924 0.912548 32.16L0.912559 32.16ZM6.77256 53.37C5.04996 46.4262 4.83514 39.1938 6.14256 32.16C7.49137 24.6532 10.2281 17.4636 14.2125 10.96C15.9362 17.9003 16.151 25.1296 14.8425 32.16C13.4938 39.67 10.7571 46.8628 6.77258 53.37L6.77256 53.37Z" transform="translate(50.787437 68.53)" id="Shape" fill="url(#gradient_4)" fill-rule="evenodd" stroke="none" />
            <path d="M30.98 8.50324C22.4665 2.84956 12.4491 -0.112114 2.23 0.00324249C1.49001 0.00324249 0.740005 0.00324249 0 0.00324249C2.99004 10.1602 9.43014 18.9557 18.21 24.8732C26.7379 30.5063 36.7603 33.45 46.98 33.3232C47.73 33.3232 48.47 33.3232 49.21 33.3232C46.2114 23.1783 39.7633 14.3994 30.98 8.50325L30.98 8.50324ZM21.67 20.5032C16.1002 16.7337 11.5402 11.6553 8.39001 5.71323C15.2368 6.6236 21.7842 9.08999 27.53 12.9232C33.0982 16.6612 37.6677 21.7044 40.84 27.6132C33.9932 26.7029 27.4458 24.2365 21.7 20.4032L21.67 20.5032Z" transform="translate(73.01999 68.49676)" id="Shape" fill="url(#gradient_5)" fill-rule="evenodd" stroke="none" />
            <path d="M58.73 0C47.6146 0.120445 36.7063 3.022 27 8.44C16.1019 14.38 6.83018 22.9066 0 33.27C0.729996 33.27 1.47 33.32 2.21 33.32C13.3463 33.2044 24.276 30.2992 34 24.87C44.9002 18.933 54.1727 10.4058 61 0.039978C60.21 0.0100021 59.47 0 58.73 0L58.73 0ZM32.07 20.39C25.3432 24.0946 17.9957 26.5381 10.39 27.6C15.6642 21.6808 21.9191 16.7148 28.88 12.92C35.6044 9.21001 42.9529 6.76616 50.56 5.71001C45.2832 11.6265 39.0288 16.5921 32.07 20.39L32.07 20.39Z" transform="translate(0 68.61)" id="Shape" fill="url(#gradient_6)" fill-rule="evenodd" stroke="none" />
          </g>
        </g>
      </g>
    </g>
  </g>
</svg>